<?xml version="1.0" encoding="UTF-8"?>
<svg width="43px" height="43px" viewBox="0 0 43 43" version="1.1" xmlns="http://www.w3.org/2000/svg" xmlns:xlink="http://www.w3.org/1999/xlink">
    <!-- Generator: Sketch 61 (89581) - https://sketch.com -->
    <title>Group 3</title>
    <desc>Created with Sketch.</desc>
    <defs>
        <path d="M6.49559629,0.514745332 C7.04921784,0.00545897177 7.85070098,-0.134249817 8.52427453,0.132937362 C8.99824169,0.317059747 8.69330492,0.107535764 14.654958,5.59310493 C15.275102,6.16385689 15.631038,6.97608082 15.631038,7.82201676 L15.631038,7.82201676 L15.631038,20.7348877 C15.631038,21.7944637 14.773342,22.6568636 13.7192149,22.6568636 L13.7192149,22.6568636 L1.91182305,22.6568636 C0.857735132,22.6568636 1.59252511e-12,21.7944637 1.59252511e-12,20.7348877 L1.59252511e-12,20.7348877 L1.59252511e-12,7.82201676 C1.59252511e-12,6.97608082 0.355935972,6.16385689 0.976511123,5.59310493 L0.976511123,5.59310493 Z M8.22684175,2.76201782 C7.64255814,2.6522153 7.12032119,3.05709166 7.06095233,3.6272277 C7.01216406,4.10816144 7.32749172,4.57810839 7.84411182,4.68601439 C8.38502808,4.78770761 8.88551605,4.44835961 8.99622035,3.91563099 C9.10039343,3.41560115 8.78565358,2.87868709 8.22684175,2.76201782 Z" id="path-1"></path>
        <filter x="-12.8%" y="-8.8%" width="151.2%" height="135.3%" filterUnits="objectBoundingBox" id="filter-2">
            <feOffset dx="3" dy="3" in="SourceAlpha" result="shadowOffsetOuter1"></feOffset>
            <feGaussianBlur stdDeviation="0.5" in="shadowOffsetOuter1" result="shadowBlurOuter1"></feGaussianBlur>
            <feColorMatrix values="0 0 0 0 0.129116639   0 0 0 0 0.109202364   0 0 0 0 0.487573596  0 0 0 0.184631774 0" type="matrix" in="shadowBlurOuter1"></feColorMatrix>
        </filter>
    </defs>
    <g id="Page-1" stroke="none" stroke-width="1" fill="none" fill-rule="evenodd">
        <g id="Add-Coupon-Option-on-Dokan-Landing-Page" transform="translate(-1889.000000, -657.000000)">
            <g id="Group-4" transform="translate(1865.000000, 510.000000)">
                <g id="Group-5" transform="translate(24.000000, 23.000000)">
                    <g id="Group-3" transform="translate(0.000000, 124.000000)">
                        <g id="Group-2">
                            <g id="Combined-Shape">
                                <g id="Group-6">
                                    <rect id="Mask" fill="#FF0000" x="0" y="0" width="43" height="43" rx="10.7799996"></rect>
                                    <g id="Group" transform="translate(21.683743, 19.907530) rotate(-315.000000) translate(-21.683743, -19.907530) translate(13.683743, 8.407530)" fill-rule="nonzero">
                                        <g id="Combined-Shape">
                                            <use fill="black" fill-opacity="1" filter="url(#filter-2)" xlink:href="#path-1"></use>
                                            <use fill="#FFFFFF" xlink:href="#path-1"></use>
                                        </g>
                                    </g>
                                </g>
                            </g>
                        </g>
                        <path d="M18.1571771,21.1018741 C19.0874114,21.1018741 19.6343548,20.5420109 19.6343548,19.5816301 C19.6343548,18.6427825 19.0744915,18.0699993 18.1571771,18.0699993 C17.2441694,18.0699993 16.6799995,18.6470891 16.6799995,19.5816301 C16.6799995,20.5377042 17.2269428,21.1018741 18.1571771,21.1018741 Z M18.7945599,24.4050673 L22.924628,18.1905852 L21.9297941,18.1905852 L17.799726,24.4050673 L18.7945599,24.4050673 Z M18.1571771,20.3309855 C17.8427924,20.3309855 17.6619135,20.0596671 17.6619135,19.5859367 C17.6619135,19.1251262 17.847099,18.8451945 18.1571771,18.8451945 C18.4629486,18.8451945 18.6481341,19.1251262 18.6481341,19.5859367 C18.6481341,20.0553605 18.4715619,20.3309855 18.1571771,20.3309855 Z M22.5671768,24.4782801 C23.4974112,24.4782801 24.0443545,23.9184169 24.0443545,22.9580361 C24.0443545,22.0191885 23.4844912,21.450712 22.5671768,21.450712 C21.6541691,21.450712 21.0899992,22.0234951 21.0899992,22.9580361 C21.0899992,23.9184169 21.6412492,24.4782801 22.5671768,24.4782801 Z M22.5671768,23.7073915 C22.2527921,23.7073915 22.0762198,23.4360732 22.0762198,22.9623427 C22.0762198,22.5015322 22.2570987,22.2216006 22.5671768,22.2216006 C22.877255,22.2216006 23.0624405,22.5015322 23.0624405,22.9623427 C23.0624405,23.4317665 22.8815616,23.7073915 22.5671768,23.7073915 Z" id="%" fill="#000000" fill-rule="nonzero"></path>
                    </g>
                </g>
            </g>
        </g>
    </g>
</svg>